<?xml version="1.0" encoding="UTF-8" standalone="no"?>
<!DOCTYPE svg PUBLIC "-//W3C//DTD SVG 1.1//EN"
 "http://www.w3.org/Graphics/SVG/1.1/DTD/svg11.dtd">
<!-- Generated by graphviz version 2.40.1 (20161225.0304)
 -->
<!-- Title: graph_name Pages: 1 -->
<svg width="163pt" height="233pt"
 viewBox="0.00 0.00 162.67 232.63" xmlns="http://www.w3.org/2000/svg" xmlns:xlink="http://www.w3.org/1999/xlink">
<g id="graph0" class="graph" transform="scale(1 1) rotate(0) translate(4 228.6253)">
<title>graph_name</title>
<polygon fill="#ffffff" stroke="transparent" points="-4,4 -4,-228.6253 158.6749,-228.6253 158.6749,4 -4,4"/>
<!-- state -->
<g id="node1" class="node">
<title>state</title>
<ellipse fill="none" stroke="#000000" cx="73.0449" cy="-112.3126" rx="26.1266" ry="26.1266"/>
<text text-anchor="middle" x="73.0449" y="-108.1126" font-family="Times,serif" font-size="14.00" fill="#000000">state</text>
</g>
<!-- state&#45;&gt;state -->
<g id="edge1" class="edge">
<title>state&#45;&gt;state</title>
<path fill="none" stroke="#000000" d="M98.0998,-121.6052C108.5224,-122.2461 117.3576,-119.1486 117.3576,-112.3126 117.3576,-107.9334 113.7316,-105.0883 108.3852,-103.7776"/>
<polygon fill="#000000" stroke="#000000" points="108.3299,-100.2641 98.0998,-103.02 107.8156,-107.2452 108.3299,-100.2641"/>
<text text-anchor="middle" x="136.0163" y="-108.1126" font-family="Times,serif" font-size="14.00" fill="#000000">update</text>
</g>
<!-- monitor -->
<g id="node4" class="node">
<title>monitor</title>
<polygon fill="none" stroke="#000000" points="66.3769,-36 5.713,-36 5.713,0 66.3769,0 66.3769,-36"/>
<text text-anchor="middle" x="36.0449" y="-13.8" font-family="Times,serif" font-size="14.00" fill="#000000">monitor</text>
</g>
<!-- state&#45;&gt;monitor -->
<g id="edge4" class="edge">
<title>state&#45;&gt;monitor</title>
<path fill="none" stroke="#000000" d="M63.3236,-87.5331C58.2733,-74.6599 52.0867,-58.8903 46.8826,-45.6252"/>
<polygon fill="#000000" stroke="#000000" points="50.0401,-44.0899 43.1296,-36.0589 43.5236,-46.6464 50.0401,-44.0899"/>
<text text-anchor="middle" x="70.0381" y="-56.8" font-family="Times,serif" font-size="14.00" fill="#000000">draw</text>
</g>
<!-- audio -->
<g id="node5" class="node">
<title>audio</title>
<polygon fill="none" stroke="#000000" points="138.0449,-36 84.0449,-36 84.0449,0 138.0449,0 138.0449,-36"/>
<text text-anchor="middle" x="111.0449" y="-13.8" font-family="Times,serif" font-size="14.00" fill="#000000">audio</text>
</g>
<!-- state&#45;&gt;audio -->
<g id="edge5" class="edge">
<title>state&#45;&gt;audio</title>
<path fill="none" stroke="#000000" d="M83.029,-87.5331C88.2158,-74.6599 94.5696,-58.8903 99.9143,-45.6252"/>
<polygon fill="#000000" stroke="#000000" points="103.2778,-46.6424 103.7687,-36.0589 96.7851,-44.0263 103.2778,-46.6424"/>
<text text-anchor="middle" x="111.769" y="-56.8" font-family="Times,serif" font-size="14.00" fill="#000000">sound</text>
</g>
<!-- keyboard -->
<g id="node2" class="node">
<title>keyboard</title>
<polygon fill="none" stroke="#000000" points="68.1348,-224.6253 -.045,-224.6253 -.045,-188.6253 68.1348,-188.6253 68.1348,-224.6253"/>
<text text-anchor="middle" x="34.0449" y="-202.4253" font-family="Times,serif" font-size="14.00" fill="#000000">keyboard</text>
</g>
<!-- keyboard&#45;&gt;state -->
<g id="edge2" class="edge">
<title>keyboard&#45;&gt;state</title>
<path fill="none" stroke="#000000" d="M41.5645,-188.4409C46.4922,-176.5243 53.0865,-160.5776 58.9663,-146.3585"/>
<polygon fill="#000000" stroke="#000000" points="62.3066,-147.4399 62.8936,-136.8613 55.8378,-144.7649 62.3066,-147.4399"/>
<text text-anchor="middle" x="69.4346" y="-159.4253" font-family="Times,serif" font-size="14.00" fill="#000000">input</text>
</g>
<!-- asset -->
<g id="node3" class="node">
<title>asset</title>
<polygon fill="none" stroke="#000000" points="140.0449,-224.6253 137.0449,-228.6253 116.0449,-228.6253 113.0449,-224.6253 86.0449,-224.6253 86.0449,-188.6253 140.0449,-188.6253 140.0449,-224.6253"/>
<text text-anchor="middle" x="113.0449" y="-202.4253" font-family="Times,serif" font-size="14.00" fill="#000000">asset</text>
</g>
<!-- asset&#45;&gt;state -->
<g id="edge3" class="edge">
<title>asset&#45;&gt;state</title>
<path fill="none" stroke="#000000" d="M105.3325,-188.4409C100.2784,-176.5243 93.5151,-160.5776 87.4845,-146.3585"/>
<polygon fill="#000000" stroke="#000000" points="86.6787,-135.4947 87.3612,-146.0676 80.2344,-138.228 86.6787,-135.4947"/>
<text text-anchor="middle" x="109.252" y="-159.4253" font-family="Times,serif" font-size="14.00" fill="#000000">refer</text>
</g>
</g>
</svg>
